<svg width="438" height="120" viewBox="0 0 438 120" fill="none" xmlns="http://www.w3.org/2000/svg">
<path d="M178.25 22.8125C183.125 22.8125 187.271 23.6458 190.688 25.3125C194.104 26.9792 196.667 29.3333 198.375 32.375C200.125 35.375 201 38.8958 201 42.9375C201 46.1042 200.271 48.9167 198.812 51.375C197.396 53.7917 195.354 55.7708 192.688 57.3125C197.104 58.7292 200.479 61.0208 202.812 64.1875C205.188 67.3125 206.375 71.1875 206.375 75.8125C206.375 80.1875 205.438 83.9583 203.562 87.125C201.688 90.2917 198.958 92.7292 195.375 94.4375C191.792 96.1458 187.458 97 182.375 97H146.938C145.521 97 144.5 96.6875 143.875 96.0625C143.292 95.3958 143 94.2917 143 92.75C143 91.2083 143.292 90.125 143.875 89.5C144.5 88.8333 145.521 88.5 146.938 88.5H154.562V31.3125H146.938C145.521 31.3125 144.5 31 143.875 30.375C143.292 29.7083 143 28.6042 143 27.0625C143 25.5208 143.292 24.4375 143.875 23.8125C144.5 23.1458 145.521 22.8125 146.938 22.8125H178.25ZM163.938 54.4375H176.875C181.667 54.4375 185.292 53.4375 187.75 51.4375C190.208 49.4375 191.438 46.6042 191.438 42.9375C191.438 39.1042 190.229 36.2083 187.812 34.25C185.396 32.2917 181.75 31.3125 176.875 31.3125H163.938V54.4375ZM163.938 88.5H180.5C185.625 88.5 189.562 87.3958 192.312 85.1875C195.104 82.9792 196.5 79.8542 196.5 75.8125C196.5 67.2292 191.271 62.9375 180.812 62.9375H163.938V88.5ZM283.812 22.8125C285.229 22.8125 286.229 23.1458 286.812 23.8125C287.438 24.4375 287.75 25.5208 287.75 27.0625C287.75 28.6042 287.438 29.7083 286.812 30.375C286.229 31 285.229 31.3125 283.812 31.3125H279.562L257.812 66.25V88.5H271.938C273.354 88.5 274.354 88.8333 274.938 89.5C275.562 90.125 275.875 91.2083 275.875 92.75C275.875 94.2917 275.562 95.3958 274.938 96.0625C274.354 96.6875 273.354 97 271.938 97H234.312C232.896 97 231.875 96.6875 231.25 96.0625C230.667 95.3958 230.375 94.2917 230.375 92.75C230.375 91.2083 230.667 90.125 231.25 89.5C231.875 88.8333 232.896 88.5 234.312 88.5H248.438V66.25L226.812 31.3125H222.438C221.021 31.3125 220 31 219.375 30.375C218.792 29.7083 218.5 28.6042 218.5 27.0625C218.5 25.5208 218.792 24.4375 219.375 23.8125C220 23.1458 221.021 22.8125 222.438 22.8125H243.312C244.729 22.8125 245.729 23.1458 246.312 23.8125C246.938 24.4375 247.25 25.5208 247.25 27.0625C247.25 28.6042 246.938 29.7083 246.312 30.375C245.729 31 244.729 31.3125 243.312 31.3125H237.5L253.125 56.875L268.875 31.3125H264.812C263.396 31.3125 262.375 31 261.75 30.375C261.167 29.7083 260.875 28.6042 260.875 27.0625C260.875 25.5208 261.167 24.4375 261.75 23.8125C262.375 23.1458 263.396 22.8125 264.812 22.8125H283.812ZM356.688 22.8125C358.104 22.8125 359.104 23.1458 359.688 23.8125C360.312 24.4375 360.625 25.5208 360.625 27.0625V50.625C360.625 52.0833 360.271 53.125 359.562 53.75C358.854 54.375 357.646 54.6875 355.938 54.6875C354.229 54.6875 353.021 54.375 352.312 53.75C351.604 53.125 351.25 52.0833 351.25 50.625V31.3125H334.562V88.5H349.312C350.729 88.5 351.729 88.8333 352.312 89.5C352.938 90.125 353.25 91.2083 353.25 92.75C353.25 94.2917 352.938 95.3958 352.312 96.0625C351.729 96.6875 350.729 97 349.312 97H310.438C309.021 97 308 96.6875 307.375 96.0625C306.792 95.3958 306.5 94.2917 306.5 92.75C306.5 91.2083 306.792 90.125 307.375 89.5C308 88.8333 309.021 88.5 310.438 88.5H325.188V31.3125H308.5V50.625C308.5 52.0833 308.146 53.125 307.438 53.75C306.729 54.375 305.521 54.6875 303.812 54.6875C302.104 54.6875 300.896 54.375 300.188 53.75C299.479 53.125 299.125 52.0833 299.125 50.625V27.0625C299.125 25.5208 299.417 24.4375 300 23.8125C300.625 23.1458 301.646 22.8125 303.062 22.8125H356.688ZM432.312 70.125C434.021 70.125 435.229 70.4375 435.938 71.0625C436.646 71.6875 437 72.7292 437 74.1875V92.75C437 94.2917 436.688 95.3958 436.062 96.0625C435.479 96.6875 434.479 97 433.062 97H377.188C375.771 97 374.75 96.6875 374.125 96.0625C373.542 95.3958 373.25 94.2917 373.25 92.75C373.25 91.2083 373.542 90.125 374.125 89.5C374.75 88.8333 375.771 88.5 377.188 88.5H383.562V31.3125H377.188C375.771 31.3125 374.75 31 374.125 30.375C373.542 29.7083 373.25 28.6042 373.25 27.0625C373.25 25.5208 373.542 24.4375 374.125 23.8125C374.75 23.1458 375.771 22.8125 377.188 22.8125H431.812C433.229 22.8125 434.229 23.1458 434.812 23.8125C435.438 24.4375 435.75 25.5208 435.75 27.0625V42.9375C435.75 44.3958 435.396 45.4375 434.688 46.0625C433.979 46.6875 432.771 47 431.062 47C429.354 47 428.146 46.6875 427.438 46.0625C426.729 45.4375 426.375 44.3958 426.375 42.9375V31.3125H392.938V54.5H409.062V48.8125C409.062 47.3542 409.375 46.3125 410 45.6875C410.667 45.0625 411.833 44.75 413.5 44.75C415.167 44.75 416.312 45.0625 416.938 45.6875C417.604 46.3125 417.938 47.3542 417.938 48.8125V68.6875C417.938 70.1458 417.604 71.1875 416.938 71.8125C416.312 72.4375 415.167 72.75 413.5 72.75C411.833 72.75 410.667 72.4375 410 71.8125C409.375 71.1875 409.062 70.1458 409.062 68.6875V63H392.938V88.5H427.625V74.1875C427.625 72.7292 427.979 71.6875 428.688 71.0625C429.396 70.4375 430.604 70.125 432.312 70.125Z" fill="white"/>
<path d="M97.5 15H22.5C20.5109 15 18.6032 15.7902 17.1967 17.1967C15.7902 18.6032 15 20.5109 15 22.5V97.5C15 99.4891 15.7902 101.397 17.1967 102.803C18.6032 104.21 20.5109 105 22.5 105H97.5C99.4891 105 101.397 104.21 102.803 102.803C104.21 101.397 105 99.4891 105 97.5V22.5C105 20.5109 104.21 18.6032 102.803 17.1967C101.397 15.7902 99.4891 15 97.5 15ZM41.25 75C41.9917 75 42.7167 75.2199 43.3334 75.632C43.9501 76.044 44.4307 76.6297 44.7145 77.3149C44.9984 78.0002 45.0726 78.7542 44.9279 79.4816C44.7833 80.209 44.4261 80.8772 43.9016 81.4017C43.3772 81.9261 42.709 82.2832 41.9816 82.4279C41.2542 82.5726 40.5002 82.4984 39.8149 82.2145C39.1297 81.9307 38.544 81.4501 38.132 80.8334C37.7199 80.2167 37.5 79.4917 37.5 78.75C37.5 77.7554 37.8951 76.8016 38.5984 76.0983C39.3016 75.3951 40.2554 75 41.25 75ZM22.5 22.5H37.5V68.1469C34.9979 69.0315 32.8892 70.7721 31.5464 73.0612C30.2036 75.3502 29.7132 78.0403 30.162 80.6559C30.6108 83.2715 31.9698 85.6442 33.9988 87.3548C36.0278 89.0653 38.5962 90.0035 41.25 90.0035C43.9038 90.0035 46.4722 89.0653 48.5012 87.3548C50.5302 85.6442 51.8892 83.2715 52.338 80.6559C52.7868 78.0403 52.2964 75.3502 50.9536 73.0612C49.6108 70.7721 47.5021 69.0315 45 68.1469V54.0516L67.5 76.5516V97.5H22.5V22.5ZM97.5 97.5H75V75C75.0004 74.5074 74.9037 74.0195 74.7155 73.5643C74.5273 73.1091 74.2513 72.6954 73.9031 72.3469L45 43.4484V22.5H60V33.75C59.9996 34.2426 60.0963 34.7305 60.2845 35.1857C60.4727 35.6409 60.7487 36.0546 61.0969 36.4031L68.5969 43.9031C67.8706 45.4154 67.4956 47.0723 67.5 48.75C67.5 50.975 68.1598 53.1501 69.396 55.0002C70.6321 56.8502 72.3891 58.2922 74.4448 59.1436C76.5005 59.9951 78.7625 60.2179 80.9448 59.7838C83.1271 59.3498 85.1316 58.2783 86.705 56.705C88.2783 55.1316 89.3498 53.1271 89.7838 50.9448C90.2179 48.7625 89.9951 46.5005 89.1436 44.4448C88.2922 42.3891 86.8502 40.6321 85.0002 39.396C83.1501 38.1598 80.975 37.5 78.75 37.5C77.072 37.4971 75.415 37.8736 73.9031 38.6016L67.5 32.1984V22.5H97.5V97.5ZM78.75 45C79.4917 45 80.2167 45.2199 80.8334 45.632C81.4501 46.044 81.9307 46.6297 82.2145 47.3149C82.4984 48.0002 82.5726 48.7542 82.4279 49.4816C82.2832 50.209 81.9261 50.8772 81.4017 51.4016C80.8772 51.9261 80.209 52.2832 79.4816 52.4279C78.7542 52.5726 78.0002 52.4984 77.3149 52.2146C76.6297 51.9307 76.044 51.4501 75.632 50.8334C75.2199 50.2167 75 49.4917 75 48.75C75 47.7554 75.3951 46.8016 76.0983 46.0984C76.8016 45.3951 77.7554 45 78.75 45Z" fill="white"/>
</svg>
