<svg version="1.1" xmlns="http://www.w3.org/2000/svg" xmlns:xlink="http://www.w3.org/1999/xlink" x="0px" y="0px"
	 width="26px" height="26px" viewBox="0 0 26 26" enable-background="new 0 0 26 26" xml:space="preserve">
<circle fill="#FFFFFF" cx="17.287" cy="8.704" r="0.976"/>
<path fill="#FFFFFF" d="M13,8.827C10.7,8.827,8.827,10.7,8.827,13c0,2.3,1.873,4.173,4.174,4.173c2.3,0,4.173-1.873,4.173-4.173
	C17.174,10.7,15.301,8.827,13,8.827z M13,15.75c-1.518,0-2.752-1.234-2.752-2.751c0-1.517,1.234-2.752,2.752-2.752
	c1.517,0,2.751,1.235,2.751,2.752C15.752,14.516,14.518,15.75,13,15.75z"/>
<path fill="#FFFFFF" d="M16.512,4.875H9.489c-2.543,0-4.614,2.07-4.614,4.614v7.023c0,2.543,2.07,4.613,4.614,4.613h7.023
	c2.543,0,4.613-2.07,4.613-4.613V9.489C21.125,6.945,19.055,4.875,16.512,4.875z M19.703,16.512c0,1.76-1.432,3.191-3.191,3.191
	H9.489c-1.76,0-3.191-1.432-3.191-3.191V9.489c0-1.76,1.432-3.191,3.191-3.191h7.023c1.76,0,3.191,1.432,3.191,3.191V16.512z"/>
</svg>
