<svg version="1.1" xmlns="http://www.w3.org/2000/svg" xmlns:xlink="http://www.w3.org/1999/xlink" x="0px" y="0px"
	 width="26px" height="26px" viewBox="0 0 26 26" enable-background="new 0 0 26 26" xml:space="preserve">
<path fill="#FFFFFF" d="M8.017,16.991c-0.549-0.001-0.995,0.442-0.995,0.991c0,0.002,0,0.002,0,0.002
	c0,0.55,0.446,0.994,0.995,0.992c0.549,0,0.993-0.444,0.993-0.994C9.01,17.434,8.566,16.991,8.017,16.991z"/>
<path fill="#FFFFFF" d="M7.871,10.643c-0.471,0.002-0.852,0.384-0.852,0.854c-0.001,0.472,0.379,0.857,0.852,0.858
	c3.199,0,5.777,2.571,5.777,5.772c-0.002,0.471,0.379,0.854,0.852,0.855c0.002,0,0.006,0,0.008,0
	c0.471-0.002,0.852-0.385,0.85-0.855C15.357,14.002,11.994,10.643,7.871,10.643z"/>
<path fill="#FFFFFF" d="M7.872,13.956c-0.473,0-0.853,0.385-0.852,0.856c0.002,0.471,0.382,0.851,0.852,0.852
	c1.368,0,2.459,1.091,2.459,2.461c0,0.002,0,0.003,0,0.005c0.002,0.474,0.386,0.854,0.858,0.853
	c0.473-0.002,0.853-0.385,0.852-0.856C12.041,15.833,10.164,13.956,7.872,13.956z"/>
<path fill="#FFFFFF" d="M7.873,7.017c-0.47,0.002-0.851,0.381-0.852,0.852V7.87C7.019,8.341,7.399,8.726,7.872,8.727
	c5.202,0,9.403,4.195,9.403,9.399c0,0.001,0,0.001,0,0.001c0,0.471,0.381,0.855,0.854,0.855c0.473-0.002,0.852-0.385,0.852-0.856
	C18.98,11.998,13.999,7.017,7.873,7.017z"/>
</svg>
